G04*
G04 #@! TF.GenerationSoftware,Altium Limited,Altium Designer,22.11.1 (43)*
G04*
G04 Layer_Physical_Order=1*
G04 Layer_Color=255*
%FSLAX25Y25*%
%MOIN*%
G70*
G04*
G04 #@! TF.SameCoordinates,0EF54BBF-8022-4FFE-BA48-DBC816024316*
G04*
G04*
G04 #@! TF.FilePolarity,Positive*
G04*
G01*
G75*
%ADD12C,0.01000*%
%ADD15R,0.06102X0.02362*%
%ADD16R,0.02362X0.01968*%
%ADD17R,0.09843X0.06693*%
%ADD25C,0.01968*%
%ADD26R,0.11614X0.19291*%
%ADD27R,0.05906X0.05906*%
%ADD28C,0.05906*%
%ADD29C,0.04724*%
%ADD30R,0.04724X0.04724*%
%ADD31C,0.05512*%
%ADD32C,0.05000*%
D12*
X426968Y251500D02*
Y252508D01*
X415322Y237000D02*
X422500D01*
X393787D02*
X415322D01*
X425500Y240000D02*
Y251500D01*
X422500Y237000D02*
X425500Y240000D01*
X358287Y272500D02*
X393787Y237000D01*
X358287Y272500D02*
X363681Y277894D01*
X324500Y272500D02*
X358287D01*
X382228Y324740D02*
Y347500D01*
Y324740D02*
X392969Y314000D01*
X425468Y301000D02*
X425500Y300969D01*
Y251500D02*
Y300969D01*
X425468Y301000D02*
X434469Y310000D01*
Y347000D01*
X404000Y358500D02*
X404468Y358032D01*
Y347000D02*
Y358032D01*
X403950Y358500D02*
X404000D01*
X399950Y362500D02*
X403950Y358500D01*
X399950Y362500D02*
X402450Y365000D01*
X382228Y362500D02*
X399950D01*
X402450Y365000D02*
X403469D01*
X360000Y346819D02*
X360681Y347500D01*
X360000Y331000D02*
Y346819D01*
X360681Y347500D02*
X360968D01*
X360000Y331000D02*
X362968Y328031D01*
Y314000D02*
Y328031D01*
X362595Y293500D02*
X362968Y293874D01*
Y314000D01*
X361000Y291905D02*
X362595Y293500D01*
X361000Y279500D02*
Y291905D01*
X363681Y278441D02*
X364740Y279500D01*
X363681Y277894D02*
Y278441D01*
X364740Y279500D02*
X364937D01*
X318000Y279000D02*
X324500Y272500D01*
X294468Y279000D02*
X318000D01*
X318256Y323213D02*
X318969Y322500D01*
X368980Y357500D02*
X369039Y357559D01*
X360968Y357500D02*
X368980D01*
X366291Y345854D02*
X367760Y347323D01*
X369039D01*
X341968Y352500D02*
X360968D01*
X318969D02*
X341968D01*
X296969D02*
X318969D01*
D15*
X360968Y347500D02*
D03*
Y352500D02*
D03*
Y357500D02*
D03*
Y362500D02*
D03*
X382228D02*
D03*
Y357500D02*
D03*
Y352500D02*
D03*
Y347500D02*
D03*
D16*
X364937Y279500D02*
D03*
X361000D02*
D03*
D17*
X378343Y293500D02*
D03*
X362595D02*
D03*
D25*
X369039Y362677D02*
D03*
X374158D02*
D03*
X369039Y357559D02*
D03*
X374158D02*
D03*
X369039Y352441D02*
D03*
X374158D02*
D03*
X369039Y347323D02*
D03*
X374158D02*
D03*
D26*
X371598Y355000D02*
D03*
D27*
X294468Y279000D02*
D03*
X296969Y352500D02*
D03*
D28*
X294468Y289000D02*
D03*
X296969Y342500D02*
D03*
D29*
X392969Y314000D02*
D03*
X362968D02*
D03*
X341968Y352500D02*
D03*
Y322500D02*
D03*
X318969Y352500D02*
D03*
Y322500D02*
D03*
X455469Y301000D02*
D03*
X425500Y251500D02*
D03*
X455500D02*
D03*
D30*
X425468Y301000D02*
D03*
D31*
X434469Y347000D02*
D03*
X404468D02*
D03*
X403469Y365000D02*
D03*
X433468D02*
D03*
D32*
X379000Y293500D02*
D03*
X371598Y355000D02*
D03*
M02*
