G04*
G04 #@! TF.GenerationSoftware,Altium Limited,Altium Designer,22.11.1 (43)*
G04*
G04 Layer_Color=128*
%FSLAX25Y25*%
%MOIN*%
G70*
G04*
G04 #@! TF.SameCoordinates,0EF54BBF-8022-4FFE-BA48-DBC816024316*
G04*
G04*
G04 #@! TF.FilePolarity,Positive*
G04*
G01*
G75*
%ADD34C,0.00500*%
D34*
X292697Y279000D02*
X296240D01*
X294468Y277228D02*
Y280772D01*
X292697Y289000D02*
X296240D01*
X294468Y287228D02*
Y290772D01*
X295197Y352500D02*
X298740D01*
X296969Y350728D02*
Y354272D01*
X295197Y342500D02*
X298740D01*
X296969Y340728D02*
Y344272D01*
X391590Y314000D02*
X394346D01*
X392969Y312622D02*
Y315378D01*
X361591Y314000D02*
X364347D01*
X362968Y312622D02*
Y315378D01*
X340591Y352500D02*
X343347D01*
X341968Y351122D02*
Y353878D01*
X340591Y322500D02*
X343347D01*
X341968Y321122D02*
Y323878D01*
X317590Y352500D02*
X320346D01*
X318969Y351122D02*
Y353878D01*
X317590Y322500D02*
X320346D01*
X318969Y321122D02*
Y323878D01*
X424090Y301000D02*
X426847D01*
X425468Y299622D02*
Y302378D01*
X454090Y301000D02*
X456847D01*
X455469Y299622D02*
Y302378D01*
X432795Y347000D02*
X436142D01*
X434469Y345327D02*
Y348673D01*
X402795Y347000D02*
X406142D01*
X404468Y345327D02*
Y348673D01*
X424122Y251500D02*
X426878D01*
X425500Y250122D02*
Y252878D01*
X454122Y251500D02*
X456878D01*
X455500Y250122D02*
Y252878D01*
X401795Y365000D02*
X405142D01*
X403469Y363327D02*
Y366673D01*
X431795Y365000D02*
X435142D01*
X433468Y363327D02*
Y366673D01*
X377600Y293500D02*
X380400D01*
X379000Y292100D02*
Y294900D01*
X370198Y355000D02*
X372998D01*
X371598Y353600D02*
Y356400D01*
X368646Y362677D02*
X369433D01*
X369039Y362283D02*
Y363071D01*
X373764Y362677D02*
X374551D01*
X374158Y362283D02*
Y363071D01*
X368646Y357559D02*
X369433D01*
X369039Y357165D02*
Y357953D01*
X373764Y357559D02*
X374551D01*
X374158Y357165D02*
Y357953D01*
X368646Y352441D02*
X369433D01*
X369039Y352047D02*
Y352835D01*
X373764Y352441D02*
X374551D01*
X374158Y352047D02*
Y352835D01*
X368646Y347323D02*
X369433D01*
X369039Y346929D02*
Y347716D01*
X373764Y347323D02*
X374551D01*
X374158Y346929D02*
Y347716D01*
M02*
