M48
;Layer_Color=9474304
;FILE_FORMAT=2:5
INCH,TZ
;TYPE=PLATED
T1F00S00C0.00787
T2F00S00C0.02756
T3F00S00C0.02800
T4F00S00C0.03346
T5F00S00C0.03543
%
T01
X369039Y347323
Y352441
Y357559
Y362677
X374158
Y357559
Y352441
Y347323
T02
X425500Y251500
X455500
X455469Y301000
X425468
X392969Y314000
X362968
X341968Y322500
X318969
Y352500
X341968
T03
X379000Y293500
X371598Y355000
T04
X404468Y347000
X403469Y365000
X433468
X434469Y347000
T05
X294468Y279000
Y289000
X296969Y342500
Y352500
M30
