G04*
G04 #@! TF.GenerationSoftware,Altium Limited,Altium Designer,22.11.1 (43)*
G04*
G04 Layer_Color=2752767*
%FSLAX25Y25*%
%MOIN*%
G70*
G04*
G04 #@! TF.SameCoordinates,0EF54BBF-8022-4FFE-BA48-DBC816024316*
G04*
G04*
G04 #@! TF.FilePolarity,Positive*
G04*
G01*
G75*
%ADD34C,0.00500*%
%ADD35C,0.00667*%
D34*
X292469Y277000D02*
Y281000D01*
X296468D01*
Y277000D01*
X292469D01*
Y287000D02*
Y291000D01*
X296468D01*
Y287000D01*
X292469D01*
X294969Y350500D02*
Y354500D01*
X298969D01*
Y350500D01*
X294969D01*
Y340500D02*
Y344500D01*
X298969D01*
Y340500D01*
X294969D01*
X434469Y345000D02*
X432469Y349000D01*
X436469D01*
X434469Y345000D01*
X404468D02*
X402468Y349000D01*
X406468D01*
X404468Y345000D01*
X403469Y363000D02*
X401469Y367000D01*
X405469D01*
X403469Y363000D01*
X433468D02*
X431468Y367000D01*
X435468D01*
X433468Y363000D01*
X377000Y291500D02*
X378000Y293500D01*
X377000Y295500D01*
X379000Y294500D01*
X381000Y295500D01*
X380000Y293500D01*
X381000Y291500D01*
X379000Y292500D01*
X377000Y291500D01*
X369598Y353000D02*
X370598Y355000D01*
X369598Y357000D01*
X371598Y356000D01*
X373598Y357000D01*
X372598Y355000D01*
X373598Y353000D01*
X371598Y354000D01*
X369598Y353000D01*
X369039Y360677D02*
X370039Y361677D01*
X371039D01*
X370039Y362677D01*
X371039Y363677D01*
X370039D01*
X369039Y364677D01*
X368039Y363677D01*
X367039D01*
X368039Y362677D01*
X367039Y361677D01*
X368039D01*
X369039Y360677D01*
X374158D02*
X375157Y361677D01*
X376157D01*
X375157Y362677D01*
X376157Y363677D01*
X375157D01*
X374158Y364677D01*
X373158Y363677D01*
X372158D01*
X373158Y362677D01*
X372158Y361677D01*
X373158D01*
X374158Y360677D01*
X369039Y355559D02*
X370039Y356559D01*
X371039D01*
X370039Y357559D01*
X371039Y358559D01*
X370039D01*
X369039Y359559D01*
X368039Y358559D01*
X367039D01*
X368039Y357559D01*
X367039Y356559D01*
X368039D01*
X369039Y355559D01*
X374158D02*
X375157Y356559D01*
X376157D01*
X375157Y357559D01*
X376157Y358559D01*
X375157D01*
X374158Y359559D01*
X373158Y358559D01*
X372158D01*
X373158Y357559D01*
X372158Y356559D01*
X373158D01*
X374158Y355559D01*
X369039Y350441D02*
X370039Y351441D01*
X371039D01*
X370039Y352441D01*
X371039Y353441D01*
X370039D01*
X369039Y354441D01*
X368039Y353441D01*
X367039D01*
X368039Y352441D01*
X367039Y351441D01*
X368039D01*
X369039Y350441D01*
X374158D02*
X375157Y351441D01*
X376157D01*
X375157Y352441D01*
X376157Y353441D01*
X375157D01*
X374158Y354441D01*
X373158Y353441D01*
X372158D01*
X373158Y352441D01*
X372158Y351441D01*
X373158D01*
X374158Y350441D01*
X369039Y345323D02*
X370039Y346323D01*
X371039D01*
X370039Y347323D01*
X371039Y348323D01*
X370039D01*
X369039Y349323D01*
X368039Y348323D01*
X367039D01*
X368039Y347323D01*
X367039Y346323D01*
X368039D01*
X369039Y345323D01*
X374158D02*
X375157Y346323D01*
X376157D01*
X375157Y347323D01*
X376157Y348323D01*
X375157D01*
X374158Y349323D01*
X373158Y348323D01*
X372158D01*
X373158Y347323D01*
X372158Y346323D01*
X373158D01*
X374158Y345323D01*
D35*
X394969Y314000D02*
G03*
X394969Y314000I-2000J0D01*
G01*
X364968D02*
G03*
X364968Y314000I-2000J0D01*
G01*
X343969Y352500D02*
G03*
X343969Y352500I-2000J0D01*
G01*
Y322500D02*
G03*
X343969Y322500I-2000J0D01*
G01*
X320969Y352500D02*
G03*
X320969Y352500I-2000J0D01*
G01*
Y322500D02*
G03*
X320969Y322500I-2000J0D01*
G01*
X427468Y301000D02*
G03*
X427468Y301000I-2000J0D01*
G01*
X457469D02*
G03*
X457469Y301000I-2000J0D01*
G01*
X427500Y251500D02*
G03*
X427500Y251500I-2000J0D01*
G01*
X457500D02*
G03*
X457500Y251500I-2000J0D01*
G01*
M02*
