G04*
G04 #@! TF.GenerationSoftware,Altium Limited,Altium Designer,22.11.1 (43)*
G04*
G04 Layer_Color=65535*
%FSLAX25Y25*%
%MOIN*%
G70*
G04*
G04 #@! TF.SameCoordinates,0EF54BBF-8022-4FFE-BA48-DBC816024316*
G04*
G04*
G04 #@! TF.FilePolarity,Positive*
G04*
G01*
G75*
%ADD10C,0.00984*%
%ADD11C,0.00787*%
%ADD12C,0.01000*%
%ADD13C,0.00591*%
D10*
X388035Y347402D02*
G03*
X388035Y347402I-492J0D01*
G01*
X356000Y293500D02*
G03*
X356000Y293500I-492J0D01*
G01*
D11*
X470469Y301000D02*
G03*
X470469Y301000I-30000J0D01*
G01*
X289469Y294000D02*
X299468D01*
Y274000D02*
Y294000D01*
X289469Y274000D02*
X299468D01*
X289469D02*
Y294000D01*
X291968Y337500D02*
X301969D01*
X291968D02*
Y357500D01*
X301969D01*
Y337500D02*
Y357500D01*
X363724Y366220D02*
X379472D01*
X363724Y343779D02*
X379472D01*
X400468Y306500D02*
Y321500D01*
X355469Y306500D02*
X400468D01*
X355469D02*
Y321500D01*
X400468D01*
X358638Y278909D02*
Y280090D01*
X334469Y360000D02*
X349468D01*
Y315000D02*
Y360000D01*
X334469Y315000D02*
X349468D01*
X334469D02*
Y360000D01*
X311469D02*
X326468D01*
Y315000D02*
Y360000D01*
X311469Y315000D02*
X326468D01*
X311469D02*
Y360000D01*
X361413Y298323D02*
Y299248D01*
Y287752D02*
Y288677D01*
Y287752D02*
X379524D01*
Y298323D02*
Y299248D01*
Y287752D02*
Y288677D01*
X361413Y299248D02*
X379524D01*
X429468Y347000D02*
Y350000D01*
X409469D02*
X429468D01*
X409469Y344000D02*
Y350000D01*
Y344000D02*
X429468D01*
Y347000D01*
X408568D02*
X409469D01*
X429468D02*
X430369D01*
X418000Y244000D02*
Y259000D01*
X463000D01*
Y244000D02*
Y259000D01*
X418000Y244000D02*
X463000D01*
X408468Y362000D02*
Y365000D01*
Y362000D02*
X428469D01*
Y368000D01*
X408468D02*
X428469D01*
X408468Y365000D02*
Y368000D01*
X428469Y365000D02*
X429368D01*
X407569D02*
X408468D01*
D12*
X271499Y279998D02*
X270499Y280998D01*
X268500D01*
X267500Y279998D01*
Y276000D01*
X268500Y275000D01*
X270499D01*
X271499Y276000D01*
Y277999D01*
X269499D01*
X273498Y275000D02*
Y280998D01*
X277497Y275000D01*
Y280998D01*
X279496D02*
Y275000D01*
X282495D01*
X283495Y276000D01*
Y279998D01*
X282495Y280998D01*
X279496D01*
X253999Y291998D02*
X250000D01*
Y288999D01*
X251999Y289998D01*
X252999D01*
X253999Y288999D01*
Y286999D01*
X252999Y286000D01*
X251000D01*
X250000Y286999D01*
X255998Y291998D02*
Y287999D01*
X257997Y286000D01*
X259997Y287999D01*
Y291998D01*
X261996Y285000D02*
X265995D01*
X270993Y291998D02*
X268994D01*
X267994Y290998D01*
Y286999D01*
X268994Y286000D01*
X270993D01*
X271993Y286999D01*
Y290998D01*
X270993Y291998D01*
X273992D02*
Y286999D01*
X274992Y286000D01*
X276991D01*
X277991Y286999D01*
Y291998D01*
X279990D02*
X283989D01*
X281990D01*
Y286000D01*
X274467Y343498D02*
X273467Y344498D01*
X271468D01*
X270468Y343498D01*
Y339500D01*
X271468Y338500D01*
X273467D01*
X274467Y339500D01*
Y341499D01*
X272468D01*
X276467Y338500D02*
Y344498D01*
X280465Y338500D01*
Y344498D01*
X282465D02*
Y338500D01*
X285464D01*
X286463Y339500D01*
Y343498D01*
X285464Y344498D01*
X282465D01*
X253969Y355998D02*
Y351999D01*
X255968Y350000D01*
X257967Y351999D01*
Y355998D01*
X263965Y354998D02*
X262966Y355998D01*
X260966D01*
X259967Y354998D01*
Y350999D01*
X260966Y350000D01*
X262966D01*
X263965Y350999D01*
X269963Y354998D02*
X268964Y355998D01*
X266964D01*
X265965Y354998D01*
Y350999D01*
X266964Y350000D01*
X268964D01*
X269963Y350999D01*
X271963Y349000D02*
X275961D01*
X277961Y355998D02*
X279960D01*
X278960D01*
Y350000D01*
X277961D01*
X279960D01*
X282959D02*
Y355998D01*
X286958Y350000D01*
Y355998D01*
X290100Y297400D02*
Y303398D01*
X293099D01*
X294099Y302398D01*
Y300399D01*
X293099Y299399D01*
X290100D01*
X300097Y297400D02*
X296098D01*
X300097Y301399D01*
Y302398D01*
X299097Y303398D01*
X297098D01*
X296098Y302398D01*
X292600Y360900D02*
Y366898D01*
X295599D01*
X296599Y365898D01*
Y363899D01*
X295599Y362899D01*
X292600D01*
X298598Y360900D02*
X300597D01*
X299598D01*
Y366898D01*
X298598Y365898D01*
X358100Y375598D02*
Y370600D01*
X359100Y369600D01*
X361099D01*
X362099Y370600D01*
Y375598D01*
X364098Y369600D02*
X366097D01*
X365098D01*
Y375598D01*
X364098Y374598D01*
X360099Y329898D02*
X359099Y330898D01*
X357100D01*
X356100Y329898D01*
Y325900D01*
X357100Y324900D01*
X359099D01*
X360099Y325900D01*
X366097Y324900D02*
X362098D01*
X366097Y328899D01*
Y329898D01*
X365097Y330898D01*
X363098D01*
X362098Y329898D01*
X359200Y290098D02*
Y284100D01*
X363199D01*
X365198D02*
X367197D01*
X366198D01*
Y290098D01*
X365198Y289098D01*
X339099Y368398D02*
X338099Y369398D01*
X336100D01*
X335100Y368398D01*
Y364400D01*
X336100Y363400D01*
X338099D01*
X339099Y364400D01*
X345097Y369398D02*
X341098D01*
Y366399D01*
X343097Y367399D01*
X344097D01*
X345097Y366399D01*
Y364400D01*
X344097Y363400D01*
X342098D01*
X341098Y364400D01*
X316099Y368398D02*
X315099Y369398D01*
X313100D01*
X312100Y368398D01*
Y364400D01*
X313100Y363400D01*
X315099D01*
X316099Y364400D01*
X318098Y363400D02*
X320097D01*
X319098D01*
Y369398D01*
X318098Y368398D01*
X408899Y339398D02*
X407899Y340398D01*
X405900D01*
X404900Y339398D01*
Y335400D01*
X405900Y334400D01*
X407899D01*
X408899Y335400D01*
X410898Y339398D02*
X411898Y340398D01*
X413897D01*
X414897Y339398D01*
Y338399D01*
X413897Y337399D01*
X412897D01*
X413897D01*
X414897Y336399D01*
Y335400D01*
X413897Y334400D01*
X411898D01*
X410898Y335400D01*
X355500Y308998D02*
Y303000D01*
X358499D01*
X359499Y304000D01*
Y307998D01*
X358499Y308998D01*
X355500D01*
X361498Y303000D02*
X363497D01*
X362498D01*
Y308998D01*
X361498Y307998D01*
X402300Y353400D02*
Y359398D01*
X405299D01*
X406299Y358398D01*
Y356399D01*
X405299Y355399D01*
X402300D01*
X404299D02*
X406299Y353400D01*
X408298D02*
X410297D01*
X409298D01*
Y359398D01*
X408298Y358398D01*
X422599Y267398D02*
X421599Y268398D01*
X419600D01*
X418600Y267398D01*
Y263400D01*
X419600Y262400D01*
X421599D01*
X422599Y263400D01*
X427597Y262400D02*
Y268398D01*
X424598Y265399D01*
X428597D01*
X401300Y371400D02*
Y377398D01*
X404299D01*
X405299Y376398D01*
Y374399D01*
X404299Y373399D01*
X401300D01*
X403299D02*
X405299Y371400D01*
X411297D02*
X407298D01*
X411297Y375399D01*
Y376398D01*
X410297Y377398D01*
X408298D01*
X407298Y376398D01*
D13*
X408453Y300949D02*
X404517D01*
X406485Y298981D02*
Y302917D01*
M02*
