G04*
G04 #@! TF.GenerationSoftware,Altium Limited,Altium Designer,22.11.1 (43)*
G04*
G04 Layer_Color=16711935*
%FSLAX25Y25*%
%MOIN*%
G70*
G04*
G04 #@! TF.SameCoordinates,0EF54BBF-8022-4FFE-BA48-DBC816024316*
G04*
G04*
G04 #@! TF.FilePolarity,Positive*
G04*
G01*
G75*
%ADD11C,0.00787*%
G36*
X370662Y354997D02*
X370692D01*
X370725Y354995D01*
X370766Y354989D01*
X370807Y354984D01*
X370900Y354970D01*
X370998Y354948D01*
X371093Y354918D01*
X371140Y354902D01*
X371183Y354880D01*
X371186Y354877D01*
X371194Y354874D01*
X371205Y354866D01*
X371219Y354858D01*
X371238Y354844D01*
X371260Y354828D01*
X371282Y354812D01*
X371306Y354790D01*
X371361Y354741D01*
X371413Y354681D01*
X371462Y354610D01*
X371484Y354569D01*
X371503Y354528D01*
Y354525D01*
X371506Y354517D01*
X371511Y354503D01*
X371517Y354484D01*
X371525Y354462D01*
X371533Y354432D01*
X371541Y354399D01*
X371549Y354361D01*
X371560Y354317D01*
X371568Y354271D01*
X371577Y354219D01*
X371582Y354162D01*
X371590Y354102D01*
X371593Y354036D01*
X371599Y353968D01*
Y353894D01*
Y352439D01*
X371265D01*
Y353894D01*
Y353897D01*
Y353908D01*
Y353924D01*
Y353949D01*
X371263Y353976D01*
Y354006D01*
X371260Y354042D01*
X371257Y354077D01*
X371252Y354156D01*
X371241Y354236D01*
X371224Y354312D01*
X371216Y354348D01*
X371205Y354378D01*
Y354380D01*
X371203Y354383D01*
X371200Y354391D01*
X371194Y354402D01*
X371178Y354432D01*
X371156Y354465D01*
X371129Y354506D01*
X371093Y354544D01*
X371050Y354582D01*
X370998Y354618D01*
X370995D01*
X370990Y354621D01*
X370982Y354626D01*
X370971Y354631D01*
X370957Y354637D01*
X370938Y354642D01*
X370919Y354651D01*
X370897Y354659D01*
X370842Y354672D01*
X370779Y354686D01*
X370708Y354697D01*
X370632Y354700D01*
X370597D01*
X370572Y354697D01*
X370542Y354694D01*
X370506Y354692D01*
X370468Y354686D01*
X370427Y354678D01*
X370343Y354659D01*
X370299Y354645D01*
X370255Y354629D01*
X370214Y354610D01*
X370176Y354588D01*
X370141Y354563D01*
X370108Y354533D01*
X370105Y354531D01*
X370100Y354525D01*
X370094Y354514D01*
X370083Y354501D01*
X370072Y354481D01*
X370059Y354457D01*
X370042Y354427D01*
X370029Y354391D01*
X370015Y354350D01*
X369999Y354304D01*
X369985Y354252D01*
X369974Y354195D01*
X369963Y354129D01*
X369955Y354058D01*
X369952Y353979D01*
X369950Y353894D01*
Y352439D01*
X369617D01*
Y353894D01*
Y353900D01*
Y353911D01*
Y353930D01*
Y353957D01*
X369619Y353990D01*
X369622Y354025D01*
X369625Y354066D01*
X369627Y354113D01*
X369638Y354208D01*
X369652Y354309D01*
X369674Y354408D01*
X369687Y354454D01*
X369704Y354498D01*
Y354501D01*
X369707Y354509D01*
X369712Y354520D01*
X369720Y354536D01*
X369731Y354555D01*
X369742Y354577D01*
X369775Y354626D01*
X369794Y354656D01*
X369816Y354683D01*
X369843Y354716D01*
X369870Y354746D01*
X369903Y354776D01*
X369936Y354806D01*
X369974Y354834D01*
X370015Y354861D01*
X370018Y354864D01*
X370026Y354866D01*
X370037Y354874D01*
X370056Y354883D01*
X370078Y354894D01*
X370105Y354905D01*
X370135Y354918D01*
X370173Y354929D01*
X370212Y354943D01*
X370255Y354956D01*
X370304Y354967D01*
X370356Y354978D01*
X370414Y354986D01*
X370474Y354995D01*
X370536Y354997D01*
X370602Y355000D01*
X370637D01*
X370662Y354997D01*
D02*
G37*
G36*
X368331Y352991D02*
X368336Y352996D01*
X368350Y353010D01*
X368374Y353029D01*
X368410Y353056D01*
X368451Y353089D01*
X368503Y353124D01*
X368560Y353163D01*
X368625Y353204D01*
X368628D01*
X368634Y353209D01*
X368642Y353215D01*
X368655Y353220D01*
X368672Y353231D01*
X368691Y353239D01*
X368735Y353264D01*
X368784Y353288D01*
X368838Y353316D01*
X368896Y353340D01*
X368950Y353362D01*
Y353064D01*
X368948Y353062D01*
X368939Y353059D01*
X368926Y353051D01*
X368907Y353043D01*
X368885Y353032D01*
X368858Y353015D01*
X368828Y352999D01*
X368797Y352983D01*
X368726Y352939D01*
X368650Y352887D01*
X368571Y352832D01*
X368497Y352770D01*
X368494Y352767D01*
X368489Y352761D01*
X368478Y352753D01*
X368464Y352740D01*
X368451Y352723D01*
X368432Y352707D01*
X368391Y352660D01*
X368344Y352611D01*
X368298Y352554D01*
X368257Y352494D01*
X368221Y352431D01*
X368022D01*
Y354959D01*
X368331D01*
Y352991D01*
D02*
G37*
G36*
X374050Y293500D02*
X373742D01*
Y295468D01*
X373736Y295463D01*
X373723Y295449D01*
X373698Y295430D01*
X373663Y295403D01*
X373622Y295370D01*
X373570Y295335D01*
X373512Y295296D01*
X373447Y295255D01*
X373444D01*
X373439Y295250D01*
X373430Y295244D01*
X373417Y295239D01*
X373400Y295228D01*
X373381Y295220D01*
X373338Y295195D01*
X373288Y295171D01*
X373234Y295143D01*
X373177Y295119D01*
X373122Y295097D01*
Y295395D01*
X373125Y295397D01*
X373133Y295400D01*
X373147Y295408D01*
X373166Y295416D01*
X373187Y295427D01*
X373215Y295444D01*
X373245Y295460D01*
X373275Y295477D01*
X373346Y295520D01*
X373422Y295572D01*
X373501Y295627D01*
X373575Y295689D01*
X373578Y295692D01*
X373583Y295698D01*
X373594Y295706D01*
X373608Y295719D01*
X373622Y295736D01*
X373641Y295752D01*
X373682Y295799D01*
X373728Y295848D01*
X373775Y295905D01*
X373815Y295965D01*
X373851Y296028D01*
X374050D01*
Y293500D01*
D02*
G37*
G36*
X371435Y296017D02*
X371468D01*
X371500Y296014D01*
X371574Y296011D01*
X371648Y296003D01*
X371722Y295995D01*
X371754Y295987D01*
X371784Y295982D01*
X371787D01*
X371795Y295979D01*
X371806Y295976D01*
X371820Y295971D01*
X371839Y295965D01*
X371861Y295960D01*
X371913Y295941D01*
X371970Y295916D01*
X372030Y295886D01*
X372093Y295848D01*
X372153Y295801D01*
X372156Y295799D01*
X372161Y295793D01*
X372172Y295785D01*
X372186Y295771D01*
X372202Y295755D01*
X372221Y295733D01*
X372243Y295711D01*
X372265Y295684D01*
X372289Y295654D01*
X372314Y295621D01*
X372339Y295586D01*
X372363Y295547D01*
X372410Y295463D01*
X372450Y295370D01*
Y295367D01*
X372456Y295359D01*
X372459Y295343D01*
X372467Y295324D01*
X372475Y295299D01*
X372483Y295269D01*
X372491Y295236D01*
X372502Y295198D01*
X372511Y295154D01*
X372519Y295108D01*
X372527Y295059D01*
X372535Y295007D01*
X372543Y294952D01*
X372546Y294895D01*
X372551Y294772D01*
Y294769D01*
Y294759D01*
Y294745D01*
Y294723D01*
X372549Y294698D01*
Y294668D01*
X372546Y294636D01*
X372543Y294600D01*
X372535Y294521D01*
X372521Y294436D01*
X372505Y294349D01*
X372483Y294262D01*
Y294259D01*
X372481Y294251D01*
X372475Y294240D01*
X372472Y294226D01*
X372464Y294207D01*
X372456Y294185D01*
X372437Y294133D01*
X372412Y294076D01*
X372382Y294013D01*
X372349Y293953D01*
X372311Y293896D01*
Y293893D01*
X372306Y293890D01*
X372300Y293882D01*
X372292Y293871D01*
X372273Y293847D01*
X372243Y293814D01*
X372210Y293776D01*
X372172Y293737D01*
X372128Y293702D01*
X372082Y293667D01*
X372079D01*
X372076Y293664D01*
X372060Y293653D01*
X372033Y293639D01*
X371997Y293620D01*
X371954Y293601D01*
X371902Y293579D01*
X371842Y293560D01*
X371779Y293541D01*
X371776D01*
X371771Y293538D01*
X371762D01*
X371749Y293535D01*
X371732Y293533D01*
X371711Y293527D01*
X371689Y293525D01*
X371664Y293522D01*
X371604Y293514D01*
X371536Y293505D01*
X371459Y293503D01*
X371377Y293500D01*
X370468D01*
Y296020D01*
X371408D01*
X371435Y296017D01*
D02*
G37*
%LPC*%
G36*
X371383Y295722D02*
X370801D01*
Y293797D01*
X371380D01*
X371402Y293800D01*
X371427D01*
X371481Y293803D01*
X371544Y293808D01*
X371610Y293817D01*
X371672Y293828D01*
X371730Y293841D01*
X371732D01*
X371735Y293844D01*
X371743Y293847D01*
X371754Y293849D01*
X371779Y293860D01*
X371812Y293874D01*
X371847Y293893D01*
X371885Y293915D01*
X371923Y293942D01*
X371956Y293972D01*
X371959Y293975D01*
X371962Y293978D01*
X371975Y293994D01*
X371997Y294021D01*
X372024Y294057D01*
X372052Y294103D01*
X372082Y294158D01*
X372112Y294221D01*
X372139Y294292D01*
Y294294D01*
X372142Y294300D01*
X372145Y294311D01*
X372150Y294327D01*
X372156Y294346D01*
X372161Y294371D01*
X372166Y294398D01*
X372175Y294428D01*
X372180Y294461D01*
X372186Y294499D01*
X372191Y294537D01*
X372197Y294581D01*
X372205Y294674D01*
X372207Y294778D01*
Y294783D01*
Y294794D01*
Y294816D01*
X372205Y294843D01*
Y294876D01*
X372202Y294914D01*
X372197Y294955D01*
X372191Y295001D01*
X372175Y295100D01*
X372153Y295201D01*
X372120Y295296D01*
X372098Y295343D01*
X372076Y295384D01*
X372074Y295386D01*
X372071Y295392D01*
X372063Y295403D01*
X372052Y295419D01*
X372041Y295436D01*
X372024Y295455D01*
X371989Y295498D01*
X371943Y295547D01*
X371888Y295594D01*
X371828Y295637D01*
X371795Y295654D01*
X371760Y295670D01*
X371757D01*
X371754Y295673D01*
X371746Y295676D01*
X371735Y295678D01*
X371719Y295681D01*
X371702Y295687D01*
X371681Y295692D01*
X371656Y295698D01*
X371629Y295700D01*
X371596Y295706D01*
X371560Y295711D01*
X371522Y295714D01*
X371479Y295717D01*
X371432Y295719D01*
X371383Y295722D01*
D02*
G37*
%LPD*%
D11*
X385673Y344173D02*
Y365827D01*
X357524D02*
X385673D01*
X357524Y344173D02*
Y365827D01*
Y344173D02*
X385673D01*
X357279Y287358D02*
Y299642D01*
Y287358D02*
X383658D01*
Y299642D01*
X357279D02*
X383658D01*
M02*
